<svg width="1561" height="865" viewBox="0 0 1561 865" fill="none" xmlns="http://www.w3.org/2000/svg">
<g clip-path="url(#clip0_24320_705)">
<ellipse cx="863" cy="1613.22" rx="1141" ry="1140.5" fill="url(#paint0_radial_24320_705)"/>
<ellipse cx="875" cy="546.5" rx="206" ry="64.5" fill="#121414" fill-opacity="0.3"/>
<path d="M935.741 204.929C935.741 204.929 956.65 249.555 956.65 251.911C956.65 254.267 938.097 264.358 934.563 266.479C931.822 268.04 928.997 269.449 926.101 270.7L928.221 291.374C928.221 291.374 960.164 284.09 973.554 276.806C986.944 269.522 986.473 261.296 983.371 249.084C980.269 236.872 959.634 189.674 959.634 189.674L935.741 204.929Z" fill="#EAEAEC"/>
<g style="mix-blend-mode:multiply" opacity="0.5">
<path d="M973.495 276.806C986.885 269.522 986.414 261.296 983.312 249.084C980.21 236.872 959.575 189.674 959.575 189.674L956.238 191.795L955.177 193.758C955.177 193.758 974.437 241.034 975.596 256.78C976.381 267.362 955.079 280.556 941.002 288.095C951.447 285.327 965.662 281.066 973.495 276.806Z" fill="#BBBBBF"/>
</g>
<path d="M935.741 204.929C935.741 204.929 956.65 249.555 956.65 251.911C956.65 254.267 938.097 264.358 934.563 266.479C931.822 268.04 928.997 269.449 926.101 270.7L928.221 291.374C928.221 291.374 960.164 284.09 973.554 276.806C986.944 269.522 986.473 261.296 983.371 249.084C980.269 236.872 959.634 189.674 959.634 189.674L935.741 204.929Z" stroke="#263238" stroke-linecap="round" stroke-linejoin="round"/>
<path d="M784.881 195.074C784.881 195.074 769.626 250.969 769.174 260.844C768.723 270.72 799.468 290.196 800.587 291.374C801.706 292.552 798.84 257.409 798.84 257.409L809.265 206.363L784.881 195.074Z" fill="#EAEAEC"/>
<g style="mix-blend-mode:multiply" opacity="0.5">
<path d="M791.87 199.648L791.536 198.137L784.881 195.074C784.881 195.074 769.626 250.969 769.174 260.844C768.723 270.72 799.468 290.196 800.587 291.374C801.039 291.845 800.862 286.583 800.489 280.085C791.34 272.33 778.206 261.414 776.674 256.82" fill="#BBBBBF"/>
</g>
<path d="M784.881 195.074C784.881 195.074 769.626 250.969 769.174 260.844C768.723 270.72 799.468 290.196 800.587 291.374C801.706 292.552 798.84 257.409 798.84 257.409L809.265 206.363L784.881 195.074Z" stroke="#263238" stroke-linecap="round" stroke-linejoin="round"/>
<path d="M856.522 138.923C856.522 138.923 850.632 143.164 839.147 143.635C827.661 144.107 827.112 135.782 812.838 135.782C795.542 135.782 773.847 190.499 773.847 190.499C773.847 190.499 784.645 201.082 795.228 205.538C801.081 208.103 807.236 209.917 813.545 210.937L815.194 246.885H931.697L933.091 210.937L969.51 187.319C969.51 187.319 951.644 155.376 942.966 143.4C934.288 131.424 919.701 135.88 915.244 138.923C910.788 141.967 897.574 142.693 892.705 141.986C886.354 140.58 880.076 138.857 873.897 136.823C873.897 136.823 866.397 130.579 856.522 138.923Z" fill="#EAF47B" stroke="#263238" stroke-linecap="round" stroke-linejoin="round"/>
<path fill-rule="evenodd" clip-rule="evenodd" d="M814.265 211.001L815.325 151.431L801.46 207.438L814.265 211.001Z" fill="#B2D930"/>
<path fill-rule="evenodd" clip-rule="evenodd" d="M917.474 247.035V177.04C917.474 159.28 902.46 153.777 882.434 146.436C875.466 143.882 867.891 141.105 860.131 137.513L859.36 137.36C868.081 131.675 874.444 136.972 874.444 136.972C880.623 139.007 886.901 140.73 893.252 142.136C898.121 142.842 911.334 142.116 915.791 139.073C920.248 136.03 934.835 131.573 943.513 143.549C952.191 155.525 970.057 187.468 970.057 187.468L933.638 211.087L932.244 247.035H917.474Z" fill="#B2D930"/>
<path d="M814.723 151.606L814.252 211.271" stroke="#263238" stroke-width="0.5" stroke-linecap="round" stroke-linejoin="round"/>
<path d="M818.944 157.025C818.944 157.025 820.594 186.141 826.798 202.358" stroke="#263238" stroke-width="0.5" stroke-linecap="round" stroke-linejoin="round"/>
<path d="M827.877 204.694C829.217 208.651 830.865 212.498 832.805 216.199" stroke="#263238" stroke-width="0.5" stroke-linecap="round" stroke-linejoin="round"/>
<path d="M822.694 153.727C824.923 164.314 828.069 174.686 832.098 184.727" stroke="#263238" stroke-width="0.5" stroke-linecap="round" stroke-linejoin="round"/>
<path d="M923.961 158.89C923.961 158.89 918.326 181.92 913.379 192.266" stroke="#263238" stroke-width="0.5" stroke-linecap="round" stroke-linejoin="round"/>
<path d="M933.091 211.035L932.855 164.525" stroke="#263238" stroke-width="0.5" stroke-linecap="round" stroke-linejoin="round"/>
<path d="M930.518 165.467C930.518 165.467 926.278 194.917 915.951 210.328" stroke="#263238" stroke-width="0.5" stroke-linecap="round" stroke-linejoin="round"/>
<path d="M925.355 204.458C925.355 204.458 920.643 213.391 917.364 218.084" stroke="#263238" stroke-width="0.5" stroke-linecap="round" stroke-linejoin="round"/>
<path d="M849.944 142.457C849.944 142.457 853.243 162.66 857.935 172.987C862.627 183.314 870.853 185.434 877.902 182.391C884.95 179.348 890.114 164.289 889.682 145.088" stroke="#263238" stroke-width="0.5" stroke-linecap="round" stroke-linejoin="round"/>
<path d="M833.276 100.168C833.276 100.168 828.8 92.4326 825.285 96.4181C821.771 100.404 828.112 109.572 831.627 112.615C835.141 115.658 837.733 113.793 837.517 110.515C837.301 107.236 833.276 100.168 833.276 100.168Z" fill="#EAEAEC" stroke="#1B2527" stroke-linecap="round" stroke-linejoin="round"/>
<path d="M833.276 100.168C833.276 100.168 828.8 92.4326 825.285 96.4181C821.771 100.404 828.112 109.572 831.627 112.615C835.141 115.658 837.733 113.793 837.517 110.515C837.301 107.236 833.276 100.168 833.276 100.168Z" stroke="#263238" stroke-linecap="round" stroke-linejoin="round"/>
<path d="M904.328 100.168C904.328 100.168 908.785 92.4326 912.319 96.4181C915.853 100.404 909.492 109.572 905.977 112.615C902.463 115.658 899.852 113.793 900.088 110.515C900.323 107.236 904.328 100.168 904.328 100.168Z" fill="#EAEAEC" stroke="#1B2527" stroke-linecap="round" stroke-linejoin="round"/>
<path d="M904.328 100.168C904.328 100.168 908.785 92.4326 912.319 96.4181C915.853 100.404 909.492 109.572 905.977 112.615C902.463 115.658 899.852 113.793 900.088 110.515C900.323 107.236 904.328 100.168 904.328 100.168Z" stroke="#263238" stroke-linecap="round" stroke-linejoin="round"/>
<path d="M854.401 137.294C856.619 147.319 859.445 157.199 862.863 166.881C867.104 177.444 875.075 177.443 878.373 170.631C881.672 163.818 883.772 138.433 883.772 138.433C883.772 138.433 861.685 141.515 854.401 137.294Z" fill="#EAEAEC" stroke="#263238" stroke-linecap="round" stroke-linejoin="round"/>
<path d="M833.747 102.759C833.747 102.759 839.853 124.356 851.417 137.058C862.981 149.761 867.123 152.765 873.269 151.842C879.414 150.919 885.951 142.929 895.1 126.319C904.249 109.71 904.917 96.9677 905.683 95.7897C906.448 94.6117 903.719 71.1306 890.644 61.0196C877.568 50.9086 862.922 46.4715 850.239 57.5053C837.556 68.539 829.507 86.5425 833.747 102.759Z" fill="#EAEAEC"/>
<path d="M833.747 102.759C833.747 102.759 839.853 124.356 851.417 137.058C862.981 149.761 867.123 152.765 873.269 151.842C879.414 150.919 885.951 142.929 895.1 126.319C904.249 109.71 904.917 96.9677 905.683 95.7897C906.448 94.6117 903.719 71.1306 890.644 61.0196C877.568 50.9086 862.922 46.4715 850.239 57.5053C837.556 68.539 829.507 86.5425 833.747 102.759Z" stroke="#263238" stroke-linecap="round" stroke-linejoin="round"/>
<path d="M873.209 114.029C872.481 118.614 872.087 123.247 872.031 127.89C872.267 132.582 873.681 133.995 871.56 134.467C869.44 134.938 867.104 131.639 867.104 131.639" stroke="#263238" stroke-linecap="round" stroke-linejoin="round"/>
<path d="M849.709 117.798C851.07 118.781 852.696 119.33 854.375 119.372C856.053 119.414 857.705 118.947 859.113 118.034" stroke="#263238" stroke-linecap="round" stroke-linejoin="round"/>
<path d="M879.551 117.798C880.909 118.779 882.532 119.327 884.207 119.369C885.882 119.411 887.53 118.946 888.936 118.034" stroke="#263238" stroke-linecap="round" stroke-linejoin="round"/>
<path d="M864.709 109.886C864.709 109.886 860.232 98.8327 845.449 103.996" stroke="#263238" stroke-linecap="round" stroke-linejoin="round"/>
<path d="M877.019 108.531C877.019 108.531 880.768 97.7134 894.158 104.055" stroke="#263238" stroke-linecap="round" stroke-linejoin="round"/>
<path d="M867.555 118.603C867.555 124.65 860.625 129.539 852.065 129.539C843.505 129.539 836.555 124.65 836.555 118.603C836.555 112.556 843.034 110.043 851.594 110.043C860.154 110.043 867.555 112.576 867.555 118.603Z" stroke="#263238" stroke-linecap="round" stroke-linejoin="round"/>
<path d="M903.268 118.603C903.268 124.65 896.318 129.539 887.758 129.539C879.198 129.539 872.267 124.65 872.267 118.603C872.267 112.556 878.726 110.043 887.286 110.043C895.846 110.043 903.268 112.576 903.268 118.603Z" stroke="#263238" stroke-linecap="round" stroke-linejoin="round"/>
<path d="M889.27 40.7582C891.606 40.2673 896.612 38.3433 899.989 30.5097C900.041 30.3912 900.069 30.2635 900.072 30.1341C900.074 30.0047 900.051 29.8761 900.004 29.7556C899.956 29.6352 899.885 29.5254 899.795 29.4324C899.705 29.3394 899.598 29.2652 899.479 29.2139C899.239 29.1142 898.97 29.1117 898.728 29.207C898.486 29.3022 898.291 29.4878 898.183 29.7244C895.081 36.9101 890.644 38.5004 888.799 38.8538C892.101 34.8569 893.925 29.8437 893.962 24.6591C893.962 11.0338 881.338 0 865.769 0C850.2 0 837.576 11.0338 837.576 24.6591C837.587 29.6346 839.243 34.4668 842.288 38.4022C839.323 38.2451 834.317 39.5017 827.975 46.9033C827.794 47.0901 827.693 47.3401 827.693 47.6003C827.693 47.8605 827.794 48.1104 827.975 48.2972C828.158 48.4485 828.387 48.5318 828.623 48.5329C828.766 48.533 828.907 48.5014 829.036 48.4402C829.165 48.3791 829.279 48.29 829.369 48.1794C837.478 38.736 842.838 40.3262 843.917 40.7582C842.084 41.7665 840.366 42.9712 838.793 44.351C829.742 52.4987 824.225 67.9106 824.932 80.7506C825.727 89.2667 828.814 97.4083 833.865 104.31C840.439 99.6057 845.89 93.5044 849.827 86.4442C852.761 81.2582 855.383 75.902 857.68 70.404C857.68 76.1565 858.426 83.1066 861.45 88.0738C863.631 91.9972 866.826 95.2625 870.701 97.5282C874.576 99.7939 878.989 100.977 883.478 100.953C885.028 100.975 886.576 100.824 888.092 100.501C888.225 100.468 888.35 100.407 888.458 100.323C888.566 100.238 888.655 100.132 888.72 100.011C896.298 101.621 903.837 101.483 904.996 99.8732C906.861 97.3013 909.511 89.2714 910.395 79.4549C912.005 62.8061 901.521 48.3561 889.27 40.7582ZM863.276 86.8762C859.467 80.6525 859.585 70.5022 860.036 64.6712L860.291 64.0037C860.472 70.0008 862.001 75.8803 864.764 81.2061C867.528 86.5318 871.454 91.1673 876.253 94.7686C878.904 96.601 881.844 97.9748 884.95 98.8327C880.14 99.1664 870.245 98.2437 863.276 86.8762Z" fill="#263238"/>
<path d="M863.609 55.9737C863.609 55.9737 861.999 67.8713 877.117 79.5334C892.234 91.1954 906.566 86.6013 906.566 86.6013" stroke="#EAEAEC" stroke-width="0.5" stroke-linecap="round" stroke-linejoin="round"/>
<path d="M865.828 52.0473C865.828 52.0473 881.75 75.2339 903.739 69.1869" stroke="#EAEAEC" stroke-width="0.5" stroke-linecap="round" stroke-linejoin="round"/>
<path d="M857.955 44.3312C855.444 43.0563 852.631 42.4955 849.823 42.7102C847.015 42.9249 844.32 43.9067 842.032 45.5485C833.57 51.1832 829.33 64.4943 829.33 64.4943" stroke="#EAEAEC" stroke-width="0.5" stroke-linecap="round" stroke-linejoin="round"/>
<path d="M858.367 50.7908C858.367 50.7908 851.515 48.9649 847.275 53.2056C845.208 55.0786 843.44 57.257 842.033 59.6649" stroke="#EAEAEC" stroke-width="0.5" stroke-linecap="round" stroke-linejoin="round"/>
<path d="M714.528 300.472L713.525 513.608C713.525 514.279 713.835 514.923 714.388 515.398C714.941 515.873 715.69 516.14 716.472 516.14C717.234 516.14 717.966 515.885 718.513 515.428C719.059 514.972 719.377 514.35 719.398 513.696L726.479 300.771L714.528 300.472Z" fill="#EAEAEC" stroke="#1B2527" stroke-linecap="round" stroke-linejoin="round"/>
<path d="M699.09 349.97L698.216 570.178C698.213 570.511 698.281 570.841 698.415 571.149C698.549 571.457 698.746 571.737 698.995 571.972C699.244 572.207 699.541 572.394 699.867 572.52C700.193 572.646 700.542 572.71 700.895 572.708C701.586 572.708 702.251 572.456 702.751 572.004C703.25 571.553 703.545 570.936 703.574 570.283L709.992 350.251L699.09 349.97Z" fill="#EAEAEC" stroke="#1B2527" stroke-linecap="round" stroke-linejoin="round"/>
<path d="M1035.28 300.472L1036.19 513.608C1036.2 513.939 1036.13 514.268 1036 514.575C1035.86 514.882 1035.67 515.162 1035.42 515.397C1035.17 515.632 1034.88 515.819 1034.55 515.946C1034.23 516.074 1033.88 516.14 1033.53 516.14C1032.83 516.14 1032.16 515.885 1031.66 515.429C1031.16 514.973 1030.87 514.352 1030.84 513.696L1024.42 300.771L1035.28 300.472Z" fill="#EAEAEC" stroke="#1B2527" stroke-linecap="round" stroke-linejoin="round"/>
<path d="M1050.59 349.97L1051.5 570.178C1051.5 570.511 1051.44 570.841 1051.3 571.149C1051.17 571.457 1050.97 571.737 1050.72 571.972C1050.47 572.207 1050.18 572.394 1049.85 572.52C1049.52 572.646 1049.18 572.71 1048.82 572.708C1048.13 572.708 1047.47 572.456 1046.97 572.003C1046.48 571.551 1046.19 570.934 1046.16 570.283L1039.73 350.251L1050.59 349.97Z" fill="#EAEAEC" stroke="#1B2527" stroke-linecap="round" stroke-linejoin="round"/>
<path d="M808.258 359.398L807.747 554.126C807.691 554.611 807.827 555.1 808.126 555.488C808.425 555.877 808.864 556.135 809.351 556.209C809.827 556.143 810.259 555.9 810.56 555.53C810.862 555.159 811.01 554.688 810.974 554.213L814.8 359.625L808.258 359.398Z" fill="#EAEAEC" stroke="#1B2527" stroke-linecap="round" stroke-linejoin="round"/>
<path d="M942.591 352.327L943.152 523.801C943.2 524.216 943.058 524.631 942.757 524.96C942.456 525.288 942.017 525.506 941.533 525.567C941.05 525.506 940.614 525.288 940.316 524.958C940.018 524.629 939.881 524.214 939.935 523.801L936.095 352.468L942.591 352.327Z" fill="#EAEAEC" stroke="#1B2527" stroke-linecap="round" stroke-linejoin="round"/>
<path d="M805.987 352.327L806.548 523.801C806.596 524.216 806.454 524.631 806.153 524.96C805.852 525.288 805.413 525.506 804.929 525.567C804.446 525.506 804.01 525.288 803.712 524.958C803.414 524.629 803.277 524.214 803.331 523.801L799.491 352.468L805.987 352.327Z" fill="#EAEAEC" stroke="#1B2527" stroke-linecap="round" stroke-linejoin="round"/>
<path d="M938.976 359.398L939.614 554.126C939.679 554.611 939.52 555.1 939.171 555.488C938.822 555.877 938.31 556.135 937.742 556.209C937.189 556.139 936.688 555.896 936.337 555.526C935.986 555.156 935.812 554.687 935.849 554.213L931.385 359.625L938.976 359.398Z" fill="#EAEAEC" stroke="#1B2527" stroke-linecap="round" stroke-linejoin="round"/>
<path d="M872.394 374.123C919.408 374.123 957.52 365.468 957.52 354.791C957.52 344.114 919.408 335.459 872.394 335.459C825.38 335.459 787.268 344.114 787.268 354.791C787.268 365.468 825.38 374.123 872.394 374.123Z" fill="#EAEAEC" stroke="#1B2527" stroke-linecap="round" stroke-linejoin="round"/>
<path d="M830.94 518.894C830.94 518.894 826.483 525.242 829.678 528.398C832.873 531.553 836.048 530.299 835.723 533.473C835.398 536.648 830.309 547.407 825.852 558.812C821.395 570.217 830.634 581.622 839.243 578.467C847.851 575.312 846.894 543.605 848.157 537.902C849.42 532.2 850.395 531.249 850.07 525.87C849.745 520.49 849.439 514.788 845.288 514.141C841.136 513.495 832.853 516.689 830.94 518.894Z" fill="#EAEAEC" stroke="#1B2527" stroke-linecap="round" stroke-linejoin="round"/>
<path d="M844.618 569.723C838.879 567.556 830.08 567.994 825.125 568.488C826.789 575.654 833.159 580.691 839.243 578.467C841.787 577.536 843.451 574.152 844.618 569.723Z" fill="#7CDFF8" stroke="#263238" stroke-linecap="round" stroke-linejoin="round"/>
<path d="M821.07 504.96C821.07 504.96 830.309 520.49 832.854 524.596C835.398 528.702 844.025 527.448 844.982 521.745C845.938 516.042 841.462 500.208 841.462 500.208L822.332 504.96H821.07Z" fill="#EAEAEC" stroke="#1B2527" stroke-linecap="round" stroke-linejoin="round"/>
<path d="M799.071 480.249C799.071 480.249 796.508 484.374 797.79 487.225C799.071 490.076 802.572 498.307 804.81 502.432C807.048 506.557 817.244 509.085 829.028 507.184C840.812 505.283 847.526 499.885 847.851 495.133C848.177 490.38 845.938 484.051 844.332 476.447C842.725 468.844 838.593 469.167 832.854 469.167C827.115 469.167 803.854 475.82 799.071 480.249Z" fill="#7CDFF8" stroke="#263238" stroke-linecap="round" stroke-linejoin="round"/>
<path d="M833.504 387.106C833.676 379.313 838.21 375.473 838.554 370.131C839.094 363.07 838.506 355.968 836.813 349.089L828.09 337.246C802.993 337.569 785.011 337.988 784.724 338.083C783.767 338.387 783.117 343.785 782.486 348.214C782.486 348.214 771.831 349.564 773.744 379.028C774.011 383.133 784.762 430.636 785.546 436.054C790.329 469.148 800.984 485.724 800.984 485.724C800.984 485.724 801.94 489.848 814.375 488.898C826.809 487.948 839.243 479.717 839.243 479.717C839.243 479.717 832.854 415.296 833.504 387.106Z" fill="#263238" stroke="#263238" stroke-linecap="round" stroke-linejoin="round"/>
<path d="M804.159 349.089C812.557 349.518 820.889 350.792 829.028 352.89C839.874 356.065 859.004 362.395 863.461 362.395C867.918 362.395 866.655 345.914 866.655 342.759C866.655 339.603 809.267 337.683 802.246 337.683C795.226 337.683 804.159 349.089 804.159 349.089Z" fill="#EAEAEC" stroke="#1B2527" stroke-linecap="round" stroke-linejoin="round"/>
<path d="M866.656 342.759C866.656 342.759 861.548 345.287 859.635 354.791C857.722 364.296 855.178 369.371 859.004 371.899C862.83 374.427 879.415 376.328 881.959 373.8C884.503 371.272 891.524 358.593 892.806 350.362C894.087 342.131 866.656 342.759 866.656 342.759Z" fill="#7CDFF8" stroke="#263238" stroke-linecap="round" stroke-linejoin="round"/>
<path d="M888.329 345.914C885.364 349.296 882.997 353.152 881.328 357.319C879.976 361.682 878.909 366.126 878.133 370.625C884.236 372.288 890.203 374.41 895.981 376.974C906.196 381.403 923.413 384.578 939.979 388.38C956.545 392.181 961.021 395.983 966.76 395.983C972.499 395.983 979.52 391.535 988.453 380.776C997.386 370.017 989.716 347.188 980.801 340.211C971.887 333.235 924.044 327.552 917.674 329.453C911.304 331.353 888.329 345.914 888.329 345.914Z" fill="#263238" stroke="#263238" stroke-linecap="round" stroke-linejoin="round"/>
<path d="M832.528 373.211C832.528 373.211 825.948 443.182 812.519 454.074" stroke="#49606B" stroke-width="0.5" stroke-linecap="round" stroke-linejoin="round"/>
<path d="M827.88 439.627C827.88 439.627 822.658 462.438 808.961 471.505" stroke="#49606B" stroke-width="0.5" stroke-linecap="round" stroke-linejoin="round"/>
<path d="M912.566 360.494C912.566 360.494 892.155 361.768 905.545 370.626C918.936 379.484 943.173 385.205 943.173 385.205" stroke="#49606B" stroke-width="0.5" stroke-linecap="round" stroke-linejoin="round"/>
<path d="M1060.74 341.237L1053.86 335.079L1037.94 300.863C1037.19 299.306 1036 297.995 1034.52 297.083C1033.05 296.171 1031.34 295.695 1029.6 295.712H720.468C718.726 295.692 717.014 296.166 715.534 297.078C714.053 297.99 712.865 299.303 712.108 300.863L692.271 343.48L689 342.283V352.034L689.153 351.92C689.348 353.221 690.012 354.407 691.023 355.257C692.033 356.107 693.32 356.563 694.643 356.539H1055.41C1056.8 356.571 1058.15 356.064 1059.18 355.124C1060.2 354.184 1060.82 352.885 1060.9 351.502L1060.74 341.237Z" fill="#5E5E61" stroke="#263238" stroke-linecap="round" stroke-linejoin="round"/>
<path d="M1055.41 347.624H694.643C693.75 347.66 692.862 347.469 692.063 347.07C691.264 346.671 690.58 346.077 690.076 345.344C689.571 344.611 689.262 343.762 689.177 342.877C689.093 341.993 689.236 341.102 689.593 340.287L712.108 291.948C712.861 290.385 714.048 289.07 715.53 288.157C717.011 287.244 718.725 286.772 720.468 286.797H1029.6C1031.34 286.776 1033.05 287.249 1034.53 288.162C1036.01 289.075 1037.19 290.388 1037.94 291.948L1060.46 340.287C1060.81 341.102 1060.96 341.993 1060.87 342.877C1060.79 343.762 1060.48 344.611 1059.97 345.344C1059.47 346.077 1058.79 346.671 1057.99 347.07C1057.19 347.469 1056.3 347.66 1055.41 347.624Z" fill="#EAEAEC" stroke="#1B2527" stroke-linecap="round" stroke-linejoin="round"/>
<g style="mix-blend-mode:multiply" opacity="0.5">
<path d="M712.912 315.158C712.912 315.158 704.744 320.727 709.851 322.761C714.959 324.795 773.667 323.274 780.822 321.241C787.976 319.207 796.125 300.445 796.125 297.404C796.125 294.362 785.834 292.176 782.046 292.005C778.258 291.834 728.216 294.856 728.216 294.856L712.912 315.158Z" fill="#A8A8A8"/>
</g>
<g style="mix-blend-mode:multiply" opacity="0.5">
<path d="M1004.94 324.795C1016.5 324.795 1025.87 320.931 1025.87 316.165C1025.87 311.399 1016.5 307.535 1004.94 307.535C993.384 307.535 984.015 311.399 984.015 316.165C984.015 320.931 993.384 324.795 1004.94 324.795Z" fill="#A8A8A8"/>
</g>
<g style="mix-blend-mode:multiply" opacity="0.5">
<path d="M871.706 335.459C913.152 335.459 946.751 329.213 946.751 321.507C946.751 313.801 913.152 307.555 871.706 307.555C830.259 307.555 796.661 313.801 796.661 321.507C796.661 329.213 830.259 335.459 871.706 335.459Z" fill="#A8A8A8"/>
</g>
<path d="M989.639 282.216C989.639 282.216 988.262 276.76 983.69 278.585C979.118 280.41 979.577 292.461 980.476 299.285C981.375 306.11 987.573 302.916 987.573 302.916V298.829C987.573 298.829 985.297 300.635 984.149 298.145C983.001 295.655 983.231 283.128 984.378 283.356C985.526 283.584 987.803 287.443 987.803 287.443C987.803 287.443 988.491 287.006 989.639 282.216Z" fill="#7CDFF8" stroke="#263238" stroke-linecap="round" stroke-linejoin="round"/>
<path d="M986.348 283.128V313.01C986.348 316.526 994.478 319.378 1004.52 319.378C1014.56 319.378 1022.68 316.526 1022.68 313.01V283.128H986.348Z" fill="#7CDFF8" stroke="#263238" stroke-linecap="round" stroke-linejoin="round"/>
<path d="M1022.68 283.128C1022.68 286.17 1014.54 288.622 1004.52 288.622C994.497 288.622 986.348 286.17 986.348 283.128C986.348 280.087 994.478 277.635 1004.52 277.635C1014.56 277.635 1022.68 280.106 1022.68 283.128Z" fill="#EAEAEC" stroke="#1B2527" stroke-linecap="round" stroke-linejoin="round"/>
<path d="M1020.3 283.128C1020.3 285.77 1013.23 287.899 1004.52 287.899C995.818 287.899 988.721 285.77 988.721 283.128C988.721 280.485 995.799 278.356 1004.52 278.356C1013.24 278.356 1020.3 280.485 1020.3 283.128Z" fill="#EAEAEC" stroke="#1B2527" stroke-linecap="round" stroke-linejoin="round"/>
<path d="M992.336 286.169C1000.29 288.475 1008.74 288.475 1016.69 286.169C1008.74 283.863 1000.29 283.863 992.336 286.169Z" fill="#263238" stroke="#263238" stroke-linecap="round" stroke-linejoin="round"/>
<path d="M710.654 296.776L710.884 307.003L780.228 307.687V295.864L710.654 296.776Z" fill="#EAEAEC" stroke="#1B2527" stroke-linecap="round" stroke-linejoin="round"/>
<path d="M780.229 307.687L790.31 286.093V279.726L779.77 297.917L780.229 307.687Z" fill="#EAEAEC" stroke="#1B2527" stroke-linecap="round" stroke-linejoin="round"/>
<path d="M710.654 306.09L710.884 316.336L780.228 317.021V305.197L710.654 306.09Z" fill="#EAEAEC" stroke="#1B2527" stroke-linecap="round" stroke-linejoin="round"/>
<path d="M780.229 317.021L790.31 295.408V289.04L779.77 307.231L780.229 317.021Z" fill="#EAEAEC" stroke="#1B2527" stroke-linecap="round" stroke-linejoin="round"/>
<path d="M737.436 270.849C737.436 270.849 739.043 267.674 736.747 266.305C734.452 264.937 731.946 268.206 730.569 269.252C729.191 270.297 700.363 289.268 699.445 292.233C698.527 295.199 699.445 301.738 705.624 302.46C711.803 303.182 717.293 299.057 720.047 298.373C722.802 297.689 723.873 297.461 723.873 297.461L742.869 271.989L737.436 270.849Z" fill="#7CDFF8" stroke="#263238" stroke-linecap="round" stroke-linejoin="round"/>
<path d="M705.624 302.479C711.803 303.163 717.293 299.077 720.047 298.392C722.802 297.708 723.873 297.48 723.873 297.48L724.562 296.548L706.714 292.937C705.744 292.029 704.496 291.468 703.169 291.344C701.842 291.22 700.511 291.54 699.387 292.252C698.527 295.18 699.445 301.776 705.624 302.479Z" fill="#EAEAEC" stroke="#1B2527" stroke-linecap="round" stroke-linejoin="round"/>
<path d="M706.771 292.974H760.334C777.053 292.974 782.084 292.062 782.084 292.062L792.375 270.905C792.375 270.905 759.855 272.958 749.812 272.274C745.662 272.155 741.529 271.697 737.455 270.905L706.771 292.974Z" fill="#7CDFF8" stroke="#263238" stroke-linecap="round" stroke-linejoin="round"/>
<path d="M706.771 292.975L707.689 297.061C707.689 297.061 751.171 297.29 762.61 297.29C774.049 297.29 782.753 297.746 782.753 297.746L782.065 292.043L706.771 292.975Z" fill="#EAEAEC" stroke="#1B2527" stroke-linecap="round" stroke-linejoin="round"/>
<path d="M782.754 297.689L792.357 275.848V270.848L782.065 292.005L782.754 297.689Z" fill="#EAEAEC" stroke="#1B2527" stroke-linecap="round" stroke-linejoin="round"/>
<path d="M937.243 323.236H806.111C805.82 323.239 805.532 323.184 805.263 323.075C804.994 322.967 804.749 322.806 804.543 322.603C804.336 322.399 804.173 322.158 804.061 321.891C803.949 321.625 803.892 321.339 803.892 321.05C803.892 320.762 803.949 320.476 804.061 320.209C804.173 319.943 804.336 319.701 804.543 319.498C804.749 319.295 804.994 319.134 805.263 319.025C805.532 318.916 805.82 318.862 806.111 318.864H937.243C937.533 318.862 937.82 318.917 938.088 319.025C938.356 319.134 938.6 319.295 938.804 319.499C939.009 319.702 939.171 319.944 939.281 320.211C939.39 320.477 939.446 320.762 939.443 321.05C939.446 321.338 939.39 321.623 939.281 321.89C939.171 322.156 939.009 322.398 938.804 322.602C938.6 322.805 938.356 322.966 938.088 323.075C937.82 323.184 937.533 323.239 937.243 323.236Z" fill="#161E22" stroke="#263238" stroke-linecap="round" stroke-linejoin="round"/>
<path d="M938.506 318.826H805.135C804.647 318.827 804.177 318.643 803.821 318.311C803.466 317.978 803.251 317.524 803.222 317.04L795.972 230.455C795.939 230.187 795.964 229.915 796.046 229.657C796.127 229.4 796.263 229.162 796.444 228.961C796.625 228.759 796.847 228.598 797.096 228.489C797.344 228.379 797.613 228.324 797.885 228.326H945.775C946.046 228.324 946.316 228.379 946.564 228.489C946.812 228.598 947.035 228.759 947.216 228.961C947.397 229.162 947.532 229.4 947.614 229.657C947.695 229.915 947.72 230.187 947.688 230.455L940.438 317.04C940.408 317.527 940.191 317.985 939.831 318.317C939.472 318.65 938.997 318.832 938.506 318.826Z" fill="#161E22" stroke="#263238" stroke-linecap="round" stroke-linejoin="round"/>
<path d="M1014.58 207.435C1016.63 205.849 1018.07 203.616 1018.66 201.105C1019.09 199.223 1019.04 197.263 1018.52 195.403" stroke="#6C7D85" stroke-linecap="round" stroke-linejoin="round"/>
<path d="M999.318 275.22C999.318 275.22 1012.04 267.617 1007.89 258.93C1003.74 250.243 989.696 244.483 989.696 230.949C989.696 219.278 1002.19 214.963 1010.34 210.286" stroke="#6C7D85" stroke-linecap="round" stroke-linejoin="round"/>
<path d="M1011.06 274.973C1011.06 274.973 1018.16 270.278 1018.16 262.826C1018.16 257.827 1012.79 254.558 1005.69 246.517" stroke="#6C7D85" stroke-linecap="round" stroke-linejoin="round"/>
<path d="M1001.77 241.651C1001.77 241.651 997.118 238.02 1000.54 231.196" stroke="#6C7D85" stroke-linecap="round" stroke-linejoin="round"/>
<path fill-rule="evenodd" clip-rule="evenodd" d="M885.206 268.674C891.234 270.497 895.165 273.435 895.165 276.536C895.165 279.627 891.253 282.565 885.264 284.388C886.664 290.436 886.056 295.255 883.341 296.8C882.704 297.163 881.97 297.334 881.158 297.334C878.502 297.334 875.024 295.483 871.508 292.259C867.992 295.503 864.514 297.373 861.858 297.373C861.046 297.373 860.312 297.201 859.684 296.838C856.96 295.293 856.342 290.465 857.733 284.397C851.705 282.575 847.773 279.636 847.773 276.536C847.773 273.445 851.686 270.516 857.694 268.684C856.294 262.635 856.902 257.817 859.617 256.271C860.254 255.909 860.988 255.737 861.8 255.737V255.728C864.456 255.728 867.934 257.579 871.45 260.803C874.966 257.559 878.444 255.689 881.1 255.689V255.699C881.898 255.7 882.629 255.872 883.254 256.233C885.979 257.779 886.597 262.606 885.206 268.674ZM881.091 257.817C879.082 257.822 876.13 259.405 872.986 262.292C874.348 263.694 875.7 265.297 877.004 267.062C879.178 267.291 881.245 267.644 883.139 268.102C883.351 267.138 883.525 266.194 883.631 265.297C884.076 261.652 883.506 258.819 882.192 258.075C881.892 257.912 881.535 257.827 881.091 257.827V257.817ZM869.914 262.301C866.765 259.429 863.799 257.855 861.8 257.855V257.865C861.355 257.865 860.979 257.941 860.689 258.113C859.385 258.867 858.824 261.7 859.278 265.345C859.394 266.232 859.559 267.157 859.781 268.111C861.674 267.644 863.741 267.291 865.925 267.062C867.209 265.297 868.562 263.704 869.914 262.301ZM881.284 273.941C881.786 272.672 882.231 271.403 882.588 270.172C881.323 269.867 879.999 269.619 878.627 269.418C879.101 270.144 879.574 270.888 880.018 271.651C880.472 272.414 880.888 273.177 881.284 273.941ZM875.836 283.977C876.637 282.842 877.41 281.621 878.164 280.333C878.888 279.083 879.555 277.805 880.163 276.526C879.555 275.248 878.888 273.979 878.154 272.729C877.401 271.451 876.618 270.239 875.816 269.104C874.387 268.989 872.928 268.922 871.469 268.922C870.001 268.922 868.542 268.989 867.103 269.113C866.301 270.248 865.528 271.47 864.775 272.758C864.05 274.008 863.374 275.286 862.775 276.564C863.384 277.843 864.05 279.112 864.785 280.362C865.538 281.64 866.321 282.852 867.122 283.987C868.552 284.101 870.011 284.168 871.469 284.168C872.938 284.168 874.396 284.101 875.836 283.977ZM882.617 282.89C882.25 281.65 881.806 280.371 881.284 279.093C880.888 279.856 880.472 280.629 880.028 281.392C879.584 282.165 879.11 282.918 878.637 283.653C880.018 283.453 881.351 283.195 882.617 282.89ZM868.803 286.22C869.692 287.336 870.59 288.357 871.489 289.273C872.377 288.357 873.276 287.336 874.145 286.22C873.266 286.267 872.368 286.286 871.46 286.286C870.561 286.286 869.673 286.258 868.803 286.22ZM860.341 282.899C861.607 283.205 862.93 283.453 864.302 283.653C863.828 282.928 863.365 282.184 862.911 281.421C862.457 280.657 862.041 279.894 861.645 279.131C861.143 280.4 860.698 281.669 860.341 282.899ZM874.126 266.852C873.237 265.736 872.339 264.715 871.44 263.799C870.552 264.715 869.653 265.736 868.784 266.852C869.663 266.804 870.561 266.785 871.469 266.785C872.368 266.785 873.256 266.814 874.126 266.852ZM862.901 271.68C863.345 270.907 863.819 270.153 864.292 269.418C862.911 269.619 861.578 269.876 860.312 270.172C860.679 271.412 861.124 272.691 861.645 273.969C862.041 273.206 862.457 272.443 862.901 271.68ZM849.918 276.536C849.918 278.034 852.13 279.923 855.55 281.363C856.39 281.716 857.298 282.041 858.255 282.336C858.795 280.476 859.51 278.539 860.399 276.555C859.501 274.561 858.776 272.615 858.226 270.745C857.289 271.04 856.38 271.355 855.55 271.708C852.13 273.139 849.918 275.038 849.918 276.536ZM859.307 287.775C858.863 291.419 859.433 294.253 860.747 294.997C861.037 295.159 861.404 295.245 861.838 295.255C863.848 295.255 866.804 293.671 869.953 290.78C868.591 289.377 867.238 287.775 865.934 286.01C863.761 285.781 861.693 285.428 859.8 284.97C859.588 285.933 859.414 286.878 859.307 287.775ZM882.25 294.959C883.554 294.205 884.114 291.371 883.66 287.727C883.554 286.84 883.38 285.914 883.158 284.951C881.265 285.418 879.197 285.771 877.014 286C875.729 287.765 874.377 289.358 873.025 290.761C876.174 293.633 879.139 295.207 881.139 295.207C881.583 295.207 881.96 295.13 882.25 294.959ZM884.703 282.327C885.641 282.031 886.549 281.716 887.379 281.363C890.799 279.932 893.011 278.034 893.021 276.536C893.021 275.038 890.809 273.149 887.389 271.708C886.539 271.355 885.631 271.031 884.675 270.735C884.134 272.595 883.419 274.532 882.53 276.517C883.428 278.511 884.153 280.457 884.703 282.327ZM875.874 276.536C875.874 278.944 873.898 280.896 871.46 280.896C869.022 280.896 867.045 278.944 867.045 276.536C867.045 274.128 869.022 272.176 871.46 272.176C873.898 272.176 875.874 274.128 875.874 276.536Z" fill="#7CDFF8"/>
</g>
<defs>
<radialGradient id="paint0_radial_24320_705" cx="0" cy="0" r="1" gradientUnits="userSpaceOnUse" gradientTransform="translate(863 481.724) rotate(90) scale(605.5 945.203)">
<stop stop-color="#1C3136"/>
<stop offset="1" stop-color="#111718"/>
</radialGradient>
<clipPath id="clip0_24320_705">
<rect width="1561" height="865" fill="white"/>
</clipPath>
</defs>
</svg>
