<svg width="94" height="25" viewBox="0 0 94 25" fill="none" xmlns="http://www.w3.org/2000/svg">
<path d="M4.43405 19.376C4.43405 19.6013 4.38205 19.766 4.27805 19.87C4.17405 19.9567 3.99205 20 3.73205 20H1.00205C0.776719 20 0.620719 19.9567 0.534053 19.87C0.46472 19.7833 0.430053 19.6447 0.430053 19.454V6.71401C0.430053 6.38467 0.568719 6.22001 0.846053 6.22001H4.04405C4.30405 6.22001 4.43405 6.36734 4.43405 6.66201V19.376ZM4.48605 3.90601C4.48605 4.33934 4.25205 4.55601 3.78405 4.55601H0.976053C0.750719 4.55601 0.594719 4.50401 0.508053 4.40001C0.438719 4.29601 0.404053 4.14868 0.404053 3.95801V1.22801C0.404053 0.881341 0.551386 0.708008 0.846053 0.708008H4.07005C4.34739 0.708008 4.48605 0.872675 4.48605 1.20201V3.90601Z" fill="#EAEAEC"/>
<path d="M21.2469 5.62201C21.4029 5.62201 21.5242 5.66534 21.6109 5.75201C21.7149 5.83867 21.7669 5.98601 21.7669 6.19401V7.96201C21.7669 8.20467 21.7149 8.37801 21.6109 8.48201C21.5069 8.56868 21.3596 8.59468 21.1689 8.56001C20.9436 8.52534 20.7182 8.50801 20.4929 8.50801C20.2849 8.49068 20.1029 8.49934 19.9469 8.53401C19.4789 8.60334 19.3056 8.80268 19.4269 9.13201C19.4616 9.28801 19.5049 9.46134 19.5569 9.65201C19.6262 9.84268 19.6609 10.0593 19.6609 10.302C19.6609 11.082 19.4269 11.8013 18.9589 12.46C18.5082 13.1013 17.8149 13.6127 16.8789 13.994C15.9429 14.3753 14.7816 14.566 13.3949 14.566C12.7016 14.566 12.1469 14.6093 11.7309 14.696C11.3149 14.7653 11.0116 14.8693 10.8209 15.008C10.6476 15.1293 10.5609 15.268 10.5609 15.424C10.5609 15.6493 10.6909 15.814 10.9509 15.918C11.2282 16.0047 11.6442 16.0653 12.1989 16.1L15.9169 16.308C17.6849 16.412 18.9762 16.802 19.7909 17.478C20.6056 18.154 21.0129 19.0207 21.0129 20.078C21.0129 21.3953 20.3889 22.47 19.1409 23.302C17.8929 24.134 16.0556 24.55 13.6289 24.55C11.1156 24.55 9.22624 24.2727 7.96091 23.718C6.69558 23.1633 6.06291 22.3227 6.06291 21.196C6.06291 20.5893 6.29691 20.0953 6.76491 19.714C7.23291 19.3327 7.83091 19.012 8.55891 18.752C8.78425 18.6653 8.78425 18.57 8.55891 18.466C8.12558 18.258 7.76158 18.0067 7.46691 17.712C7.18958 17.4 7.05091 17.01 7.05091 16.542C7.05091 16.1953 7.16358 15.8833 7.38891 15.606C7.61425 15.3113 7.91758 15.0427 8.29891 14.8C8.68025 14.5573 9.10491 14.3493 9.57291 14.176C9.65958 14.1413 9.72025 14.098 9.75491 14.046C9.78958 13.9767 9.74625 13.916 9.62491 13.864C8.81025 13.4827 8.18624 12.9973 7.75291 12.408C7.31958 11.8187 7.10291 11.1253 7.10291 10.328C7.10291 9.04534 7.65758 8.00534 8.76691 7.20801C9.89358 6.41067 11.5316 6.01201 13.6809 6.01201C14.6342 6.01201 15.4576 6.11601 16.1509 6.32401C16.8442 6.53201 17.4076 6.81801 17.8409 7.18201C17.9622 7.26867 18.0836 7.31201 18.2049 7.31201C18.3436 7.29468 18.4562 7.23401 18.5429 7.13001C18.7682 6.85267 19.0369 6.60134 19.3489 6.37601C19.6609 6.15067 19.9902 5.96868 20.3369 5.83001C20.6836 5.69134 20.9869 5.62201 21.2469 5.62201ZM13.3689 12.59C14.2876 12.59 14.9549 12.382 15.3709 11.966C15.8042 11.5327 16.0209 11.004 16.0209 10.38C16.0209 9.68668 15.8042 9.12334 15.3709 8.69001C14.9549 8.23934 14.2876 8.01401 13.3689 8.01401C12.5196 8.01401 11.8609 8.23934 11.3929 8.69001C10.9249 9.12334 10.6909 9.68668 10.6909 10.38C10.6909 11.004 10.9249 11.5327 11.3929 11.966C11.8609 12.382 12.5196 12.59 13.3689 12.59ZM11.4449 19.22C11.0982 19.2027 10.7689 19.2547 10.4569 19.376C10.1449 19.4973 9.88491 19.6707 9.67691 19.896C9.46891 20.1213 9.36491 20.3813 9.36491 20.676C9.36491 21.0747 9.51225 21.4213 9.80691 21.716C10.1016 22.0107 10.5782 22.236 11.2369 22.392C11.8956 22.548 12.7796 22.626 13.8889 22.626C15.0676 22.626 15.9602 22.4613 16.5669 22.132C17.1909 21.82 17.5029 21.3693 17.5029 20.78C17.5029 20.416 17.3296 20.104 16.9829 19.844C16.6536 19.584 16.1422 19.4367 15.4489 19.402L11.4449 19.22Z" fill="#EAEAEC"/>
<path d="M27.742 19.376C27.742 19.792 27.4994 20 27.014 20H23.946C23.5647 20 23.374 19.818 23.374 19.454V16.152C23.374 15.84 23.5127 15.684 23.79 15.684H27.352C27.612 15.684 27.742 15.8313 27.742 16.126V19.376Z" fill="#7CDFF8"/>
<path d="M30.8354 20C30.4714 20 30.2894 19.8267 30.2894 19.48V6.71401C30.2894 6.38467 30.4281 6.22001 30.7054 6.22001H33.8514C34.1114 6.22001 34.2414 6.36734 34.2414 6.66201V7.93601C34.2414 8.04001 34.2674 8.10934 34.3194 8.14401C34.3714 8.17867 34.4494 8.14401 34.5534 8.04001C35.0041 7.62401 35.4548 7.26001 35.9054 6.94801C36.3561 6.63601 36.8328 6.39334 37.3354 6.22001C37.8381 6.04668 38.3754 5.96001 38.9474 5.96001C40.2128 5.96001 41.2094 6.33268 41.9374 7.07801C42.6828 7.82334 43.0554 8.82001 43.0554 10.068V19.376C43.0554 19.792 42.8474 20 42.4314 20H39.5454C39.3721 20 39.2421 19.9653 39.1554 19.896C39.0861 19.8093 39.0514 19.6707 39.0514 19.48V10.692C39.0514 10.1027 38.8868 9.65201 38.5574 9.34001C38.2454 9.01067 37.7774 8.84601 37.1534 8.84601C36.7894 8.84601 36.4514 8.90668 36.1394 9.02801C35.8274 9.14934 35.5241 9.33134 35.2294 9.57401C34.9348 9.79934 34.6228 10.094 34.2934 10.458V19.402C34.2934 19.8007 34.0681 20 33.6174 20H30.8354Z" fill="#EAEAEC"/>
<path d="M49.2877 14.28C49.2877 14.9213 49.435 15.4933 49.7297 15.996C50.0417 16.4813 50.449 16.8627 50.9517 17.14C51.4717 17.4 52.0524 17.53 52.6937 17.53C53.3177 17.53 53.8897 17.4 54.4097 17.14C54.947 16.8627 55.4844 16.412 56.0217 15.788C56.091 15.7187 56.1517 15.684 56.2037 15.684C56.2557 15.6667 56.351 15.6927 56.4897 15.762L58.3617 16.542C58.6044 16.646 58.6304 16.8193 58.4397 17.062C57.885 17.8593 57.3044 18.492 56.6977 18.96C56.091 19.428 55.415 19.766 54.6697 19.974C53.9417 20.1647 53.1184 20.26 52.1997 20.26C50.8477 20.26 49.643 19.9653 48.5857 19.376C47.5284 18.7867 46.6877 17.972 46.0637 16.932C45.457 15.8747 45.1537 14.67 45.1537 13.318C45.1537 11.8273 45.4657 10.536 46.0897 9.44401C46.731 8.33467 47.5804 7.47668 48.6377 6.87001C49.695 6.26334 50.8564 5.96001 52.1217 5.96001C53.4564 5.96001 54.6264 6.25467 55.6317 6.84401C56.637 7.41601 57.4257 8.23934 57.9977 9.31401C58.587 10.3887 58.8817 11.6973 58.8817 13.24C58.8817 13.4307 58.8644 13.578 58.8297 13.682C58.795 13.786 58.665 13.8467 58.4397 13.864H49.5997C49.4957 13.864 49.4177 13.8987 49.3657 13.968C49.3137 14.0373 49.2877 14.1413 49.2877 14.28ZM54.5137 11.68C54.7044 11.68 54.8257 11.6627 54.8777 11.628C54.9297 11.576 54.9557 11.472 54.9557 11.316C54.9557 10.8827 54.8517 10.4407 54.6437 9.99001C54.453 9.53934 54.1584 9.16667 53.7597 8.87201C53.3784 8.56001 52.8844 8.40401 52.2777 8.40401C51.7057 8.40401 51.1944 8.54268 50.7437 8.82001C50.293 9.09734 49.9464 9.48734 49.7037 9.99001C49.461 10.4753 49.3397 11.03 49.3397 11.654L54.5137 11.68Z" fill="#EAEAEC"/>
<path d="M79.4564 6.22001C79.6298 6.22001 79.7511 6.28068 79.8204 6.40201C79.8898 6.52334 79.8898 6.66201 79.8204 6.81801L75.5824 19.584C75.5304 19.74 75.4611 19.8527 75.3744 19.922C75.3051 19.974 75.1924 20 75.0364 20H72.9044C72.5578 20 72.3324 19.8353 72.2284 19.506L69.9924 12.356C69.9231 12.1827 69.8538 12.096 69.7844 12.096C69.7151 12.096 69.6631 12.1827 69.6284 12.356L67.3404 19.584C67.3058 19.74 67.2451 19.8527 67.1584 19.922C67.0891 19.974 66.9678 20 66.7944 20H64.5844C64.2551 20 64.0384 19.8353 63.9344 19.506L59.7484 6.84401C59.6964 6.67067 59.7051 6.52334 59.7744 6.40201C59.8611 6.28068 59.9911 6.22001 60.1644 6.22001H63.2064C63.3278 6.22001 63.4404 6.26334 63.5444 6.35001C63.6658 6.41934 63.7438 6.52334 63.7784 6.66201L66.0924 14.02C66.1271 14.176 66.1791 14.254 66.2484 14.254C66.3351 14.254 66.4044 14.1673 66.4564 13.994L68.6924 6.63601C68.7271 6.51468 68.7964 6.41934 68.9004 6.35001C69.0044 6.26334 69.1258 6.22001 69.2644 6.22001H71.4484C71.5698 6.22001 71.6824 6.26334 71.7864 6.35001C71.9078 6.41934 71.9771 6.52334 71.9944 6.66201L74.2564 14.02C74.3084 14.176 74.3691 14.254 74.4384 14.254C74.5078 14.254 74.5771 14.1673 74.6464 13.994L76.8824 6.63601C76.9518 6.51468 77.0298 6.41934 77.1164 6.35001C77.2204 6.26334 77.3418 6.22001 77.4804 6.22001H79.4564Z" fill="#EAEAEC"/>
<path d="M89.9281 9.80801C89.6335 9.42667 89.2348 9.09734 88.7321 8.82001C88.2295 8.54268 87.6141 8.40401 86.8861 8.40401C86.2448 8.40401 85.6988 8.53401 85.2481 8.79401C84.8148 9.03667 84.5981 9.37467 84.5981 9.80801C84.5981 10.0333 84.6848 10.25 84.8581 10.458C85.0315 10.6487 85.4301 10.822 86.0541 10.978L89.0442 11.706C90.4828 12.0353 91.5055 12.5727 92.1121 13.318C92.7188 14.0633 93.0221 14.8953 93.0221 15.814C93.0221 16.75 92.7535 17.5473 92.2161 18.206C91.6962 18.8647 90.9681 19.376 90.0322 19.74C89.0962 20.0867 88.0215 20.26 86.8082 20.26C85.2655 20.26 83.9568 19.9913 82.8821 19.454C81.8075 18.8993 81.0535 18.2147 80.6201 17.4C80.5508 17.2787 80.5161 17.166 80.5161 17.062C80.5161 16.9407 80.5682 16.854 80.6721 16.802L82.4401 15.892C82.6135 15.8053 82.7435 15.7707 82.8301 15.788C82.9341 15.788 83.0208 15.8313 83.0901 15.918C83.3155 16.23 83.5842 16.5247 83.8961 16.802C84.2081 17.0793 84.5981 17.3047 85.0661 17.478C85.5341 17.634 86.1235 17.7033 86.8341 17.686C87.3195 17.686 87.7528 17.634 88.1341 17.53C88.5328 17.4087 88.8448 17.244 89.0701 17.036C89.2955 16.8107 89.4081 16.5507 89.4081 16.256C89.4081 15.9613 89.2868 15.71 89.0442 15.502C88.8015 15.2767 88.3508 15.086 87.6921 14.93L85.0141 14.358C83.7141 14.0633 82.7262 13.604 82.0501 12.98C81.3915 12.3387 81.0621 11.5067 81.0621 10.484C81.0621 9.60001 81.2875 8.82001 81.7381 8.14401C82.2061 7.46801 82.8821 6.93934 83.7661 6.55801C84.6501 6.15934 85.7075 5.96001 86.9381 5.96001C88.2555 5.96001 89.3908 6.20268 90.3441 6.68801C91.3148 7.17334 92.0081 7.75401 92.4241 8.43001C92.4935 8.53401 92.5455 8.64668 92.5801 8.76801C92.6148 8.87201 92.5541 8.96734 92.3981 9.05401L90.5261 9.96401C90.4048 10.016 90.2922 10.0333 90.1881 10.016C90.1015 9.98134 90.0148 9.91201 89.9281 9.80801Z" fill="#EAEAEC"/>
</svg>
