<svg width="24" height="24" viewBox="0 0 24 24" fill="none" xmlns="http://www.w3.org/2000/svg">
<path fill-rule="evenodd" clip-rule="evenodd" d="M7 3.5C6.60218 3.5 6.22064 3.65804 5.93934 3.93934C5.65804 4.22064 5.5 4.60218 5.5 5V20.0284L11.7094 15.5931C11.8832 15.469 12.1168 15.469 12.2906 15.5931L18.5 20.0284V5C18.5 4.60218 18.342 4.22064 18.0607 3.93934C17.7794 3.65804 17.3978 3.5 17 3.5H7ZM5.23223 3.23223C5.70107 2.76339 6.33696 2.5 7 2.5H17C17.663 2.5 18.2989 2.76339 18.7678 3.23223C19.2366 3.70107 19.5 4.33696 19.5 5V21C19.5 21.1873 19.3953 21.3589 19.2288 21.4446C19.0623 21.5303 18.8618 21.5157 18.7094 21.4069L12 16.6145L5.29062 21.4069C5.13821 21.5157 4.93774 21.5303 4.77121 21.4446C4.60467 21.3589 4.5 21.1873 4.5 21V5C4.5 4.33696 4.76339 3.70107 5.23223 3.23223Z" fill="#EAEAEC"/>
</svg>
