<svg width="24" height="24" viewBox="0 0 24 24" fill="none" xmlns="http://www.w3.org/2000/svg">
<path fill-rule="evenodd" clip-rule="evenodd" d="M6 1.5C5.33696 1.5 4.70107 1.76339 4.23223 2.23223C3.76339 2.70107 3.5 3.33696 3.5 4V20C3.5 20.663 3.76339 21.2989 4.23223 21.7678C4.70107 22.2366 5.33696 22.5 6 22.5H18C18.663 22.5 19.2989 22.2366 19.7678 21.7678C20.2366 21.2989 20.5 20.6629 20.5 19.9998L20.5 3.97956C20.5001 3.47419 20.5003 2.79317 19.8535 2.14646C19.2068 1.49976 18.5258 1.49992 18.0204 1.50004L18 1.50002L17.9952 1.50006C17.1211 1.5084 16.1235 1.5084 15.3435 1.5063C14.9537 1.50525 14.6186 1.50368 14.3811 1.50237L14.0037 1.5H6ZM20.5 19.9998L20 20C20.5 20 20.5 19.9999 20.5 19.9998ZM20 20L19.5 19.9998C19.5 19.9999 19.5 20 20 20ZM19.5 19.9998C19.5 20.3976 19.342 20.7794 19.0607 21.0607C18.7794 21.342 18.3978 21.5 18 21.5H6C5.60218 21.5 5.22064 21.342 4.93934 21.0607C4.65804 20.7794 4.5 20.3978 4.5 20V4C4.5 3.60218 4.65804 3.22064 4.93934 2.93934C5.22064 2.65804 5.60218 2.5 6 2.5H14L14.0029 2.50003L14.3755 2.50235C14.6139 2.50366 14.9499 2.50524 15.3408 2.50629C16.1215 2.50839 17.1228 2.50841 18.0024 2.50004C18.4936 2.50007 18.8025 2.5096 19.1465 2.85358C19.491 3.19811 19.5 3.50743 19.5 3.99991V19.9998ZM8 12.5C7.72386 12.5 7.5 12.7239 7.5 13C7.5 13.2761 7.72386 13.5 8 13.5H16C16.2761 13.5 16.5 13.2761 16.5 13C16.5 12.7239 16.2761 12.5 16 12.5H8ZM7.5 17C7.5 16.7239 7.72386 16.5 8 16.5H14C14.2761 16.5 14.5 16.7239 14.5 17C14.5 17.2761 14.2761 17.5 14 17.5H8C7.72386 17.5 7.5 17.2761 7.5 17ZM8 8.5C7.72386 8.5 7.5 8.72386 7.5 9C7.5 9.27614 7.72386 9.5 8 9.5H12C12.2761 9.5 12.5 9.27614 12.5 9C12.5 8.72386 12.2761 8.5 12 8.5H8Z" fill="#EAEAEC"/>
</svg>
