<svg width="24" height="24" viewBox="0 0 24 24" fill="none" xmlns="http://www.w3.org/2000/svg">
<path fill-rule="evenodd" clip-rule="evenodd" d="M2.5 7C2.5 6.72386 2.72386 6.5 3 6.5H21C21.2761 6.5 21.5 6.72386 21.5 7C21.5 7.27614 21.2761 7.5 21 7.5H3C2.72386 7.5 2.5 7.27614 2.5 7ZM5.5 12C5.5 11.7239 5.72386 11.5 6 11.5H18C18.2761 11.5 18.5 11.7239 18.5 12C18.5 12.2761 18.2761 12.5 18 12.5H6C5.72386 12.5 5.5 12.2761 5.5 12ZM8 16.5C7.72386 16.5 7.5 16.7239 7.5 17C7.5 17.2761 7.72386 17.5 8 17.5H16C16.2761 17.5 16.5 17.2761 16.5 17C16.5 16.7239 16.2761 16.5 16 16.5H8Z" fill="#EAEAEC"/>
</svg>
