<svg width="24" height="24" viewBox="0 0 24 24" fill="none" xmlns="http://www.w3.org/2000/svg">
<path fill-rule="evenodd" clip-rule="evenodd" d="M11.6456 2.75452C11.7424 2.92621 11.7293 3.13873 11.6121 3.29721C10.6867 4.54917 10.2414 6.0917 10.3572 7.64424C10.4729 9.19678 11.1421 10.6562 12.243 11.7571C13.3438 12.8579 14.8033 13.5271 16.3558 13.6429C17.9083 13.7586 19.4509 13.3133 20.7028 12.3879L21 12.79L21.4979 12.836C21.3319 14.6328 20.6575 16.3451 19.5538 17.7726C18.4501 19.2001 16.9627 20.2838 15.2656 20.8968C13.5685 21.5098 11.7319 21.6268 9.97071 21.2341C8.20953 20.8414 6.59662 19.9553 5.3207 18.6793C4.04477 17.4034 3.15862 15.7905 2.76592 14.0293C2.37322 12.2681 2.49021 10.4316 3.10322 8.73444C3.71623 7.03733 4.79989 5.54991 6.2274 4.4462C7.65492 3.3425 9.36724 2.66817 11.164 2.50213C11.3603 2.48399 11.5488 2.58283 11.6456 2.75452ZM20.3383 13.7946C19.0989 14.4483 17.6938 14.7454 16.2814 14.6401C14.49 14.5065 12.8061 13.7344 11.5359 12.4642C10.2657 11.1939 9.49353 9.51 9.35994 7.71861C9.25462 6.30626 9.55171 4.9011 10.2054 3.66176C8.98508 3.93123 7.83466 4.46757 6.83907 5.23732C5.56182 6.22484 4.59223 7.5557 4.04375 9.07417C3.49527 10.5926 3.39058 12.2359 3.74195 13.8117C4.09331 15.3875 4.88619 16.8306 6.0278 17.9722C7.16942 19.1138 8.61255 19.9067 10.1883 20.2581C11.7641 20.6094 13.4074 20.5048 14.9259 19.9563C16.4443 19.4078 17.7752 18.4382 18.7627 17.161C19.5325 16.1654 20.0688 15.015 20.3383 13.7946Z" fill="#EAEAEC"/>
</svg>
