<svg width="24" height="24" viewBox="0 0 24 24" fill="none" xmlns="http://www.w3.org/2000/svg">
<path fill-rule="evenodd" clip-rule="evenodd" d="M12 0.5C12.2761 0.5 12.5 0.723858 12.5 1V3C12.5 3.27614 12.2761 3.5 12 3.5C11.7239 3.5 11.5 3.27614 11.5 3V1C11.5 0.723858 11.7239 0.5 12 0.5ZM12 7.5C9.51472 7.5 7.5 9.51472 7.5 12C7.5 14.4853 9.51472 16.5 12 16.5C14.4853 16.5 16.5 14.4853 16.5 12C16.5 9.51472 14.4853 7.5 12 7.5ZM6.5 12C6.5 8.96243 8.96243 6.5 12 6.5C15.0376 6.5 17.5 8.96243 17.5 12C17.5 15.0376 15.0376 17.5 12 17.5C8.96243 17.5 6.5 15.0376 6.5 12ZM12.5 21C12.5 20.7239 12.2761 20.5 12 20.5C11.7239 20.5 11.5 20.7239 11.5 21V23C11.5 23.2761 11.7239 23.5 12 23.5C12.2761 23.5 12.5 23.2761 12.5 23V21ZM3.86642 3.86666C4.06168 3.6714 4.37826 3.6714 4.57352 3.86666L5.99352 5.28666C6.18879 5.48192 6.18879 5.79851 5.99352 5.99377C5.79826 6.18903 5.48168 6.18903 5.28642 5.99377L3.86642 4.57377C3.67116 4.37851 3.67116 4.06192 3.86642 3.86666ZM18.7135 18.0063C18.5183 17.811 18.2017 17.811 18.0064 18.0063C17.8112 18.2016 17.8112 18.5182 18.0064 18.7134L19.4264 20.1334C19.6217 20.3287 19.9383 20.3287 20.1335 20.1334C20.3288 19.9382 20.3288 19.6216 20.1335 19.4263L18.7135 18.0063ZM0.5 12C0.5 11.7239 0.723858 11.5 1 11.5H3C3.27614 11.5 3.5 11.7239 3.5 12C3.5 12.2761 3.27614 12.5 3 12.5H1C0.723858 12.5 0.5 12.2761 0.5 12ZM21 11.5C20.7239 11.5 20.5 11.7239 20.5 12C20.5 12.2761 20.7239 12.5 21 12.5H23C23.2761 12.5 23.5 12.2761 23.5 12C23.5 11.7239 23.2761 11.5 23 11.5H21ZM5.99352 18.0063C6.18879 18.2016 6.18879 18.5182 5.99352 18.7134L4.57352 20.1334C4.37826 20.3287 4.06168 20.3287 3.86642 20.1334C3.67116 19.9382 3.67116 19.6216 3.86642 19.4263L5.28642 18.0063C5.48168 17.811 5.79826 17.811 5.99352 18.0063ZM20.1335 4.57377C20.3288 4.37851 20.3288 4.06192 20.1335 3.86666C19.9383 3.6714 19.6217 3.6714 19.4264 3.86666L18.0064 5.28666C17.8112 5.48192 17.8112 5.79851 18.0064 5.99377C18.2017 6.18903 18.5183 6.18903 18.7135 5.99377L20.1335 4.57377Z" fill="#EAEAEC"/>
</svg>
